<svg width="42" height="38" viewBox="0 0 42 38" fill="none" xmlns="http://www.w3.org/2000/svg">
<rect x="2.57129" y="1.89062" width="36" height="36" rx="6" fill="white"/>
<path d="M4.93554 24.016L17.5315 18.6157C19.4726 17.7835 21.67 17.7835 23.611 18.6157L36.207 24.016C37.6414 24.6309 38.5713 26.0414 38.5713 27.602C38.5713 29.1626 37.6414 30.573 36.207 31.188L23.611 36.5882C21.67 37.4204 19.4726 37.4204 17.5315 36.5882L4.93554 31.188C3.50121 30.573 2.57129 29.1626 2.57129 27.602C2.57129 26.0414 3.50121 24.6309 4.93554 24.016Z" fill="#1481FD"/>
<path d="M17.0254 9.72266C19.2896 8.75209 21.8529 8.75209 24.1172 9.72266L36.7139 15.123C38.6207 15.9406 39.8573 17.816 39.8574 19.8906C39.8574 21.9655 38.6208 23.8416 36.7139 24.6592L24.1172 30.0586C21.8528 31.0293 19.2898 31.0293 17.0254 30.0586L4.42871 24.6592C2.52174 23.8416 1.28516 21.9655 1.28516 19.8906C1.28532 17.816 2.52189 15.9406 4.42871 15.123L17.0254 9.72266Z" fill="#1481FD" stroke="white" stroke-width="2.57143"/>
<path d="M17.0254 2.01172C19.2896 1.04115 21.8529 1.04115 24.1172 2.01172L36.7139 7.41211C38.6207 8.22964 39.8573 10.105 39.8574 12.1797C39.8574 14.2545 38.6208 16.1307 36.7139 16.9482L24.1172 22.3477C21.8528 23.3184 19.2898 23.3184 17.0254 22.3477L4.42871 16.9482C2.52174 16.1307 1.28516 14.2545 1.28516 12.1797C1.28532 10.105 2.52189 8.22964 4.42871 7.41211L17.0254 2.01172Z" fill="#1481FD" stroke="white" stroke-width="2.57143"/>
<rect x="15.4385" y="9.60156" width="10.2875" height="2.57281" rx="1.2864" fill="white"/>
</svg>
