<svg width="28" height="26" viewBox="0 0 28 26" fill="none" xmlns="http://www.w3.org/2000/svg">
<rect x="1.71094" y="1.25781" width="24" height="24" rx="4" fill="white"/>
<path d="M3.2871 16.0081L11.6844 12.4079C12.9785 11.8531 14.4434 11.8531 15.7374 12.4079L24.1348 16.0081C25.091 16.418 25.7109 17.3583 25.7109 18.3987C25.7109 19.4391 25.091 20.3794 24.1348 20.7894L15.7374 24.3896C14.4434 24.9443 12.9785 24.9443 11.6844 24.3896L3.2871 20.7894C2.33089 20.3794 1.71094 19.4391 1.71094 18.3987C1.71094 17.3583 2.33088 16.418 3.2871 16.0081Z" fill="#586780"/>
<path d="M11.3467 6.47949C12.8564 5.83223 14.5655 5.83223 16.0752 6.47949L24.4727 10.0801C25.7437 10.6252 26.5682 11.8748 26.5684 13.2578C26.5684 14.641 25.7439 15.8914 24.4727 16.4365L16.0752 20.0371C14.5656 20.6843 12.8563 20.6843 11.3467 20.0371L2.94922 16.4365C1.67797 15.8914 0.853516 14.641 0.853516 13.2578C0.853627 11.8748 1.67814 10.6252 2.94922 10.0801L11.3467 6.47949Z" fill="#586780" stroke="white" stroke-width="1.71429"/>
<path d="M11.3467 1.33887C12.8564 0.69161 14.5655 0.691609 16.0752 1.33887L24.4727 4.93945C25.7437 5.48453 26.5682 6.73417 26.5684 8.11719C26.5684 9.50037 25.7439 10.7508 24.4727 11.2959L16.0752 14.8965C14.5656 15.5437 12.8563 15.5437 11.3467 14.8965L2.94922 11.2959C1.67797 10.7508 0.853516 9.50037 0.853516 8.11719C0.853627 6.73417 1.67814 5.48453 2.94922 4.93945L11.3467 1.33887Z" fill="#586780" stroke="white" stroke-width="1.71429"/>
<rect x="10.2891" y="6.39844" width="6.8583" height="1.7152" rx="0.857602" fill="white"/>
</svg>
